<svg width="17" height="16" viewBox="0 0 17 16" fill="none" xmlns="http://www.w3.org/2000/svg">
<path d="M6.00815 7.33333V4.66667C6.00815 3.95942 6.2891 3.28115 6.7892 2.78105C7.28929 2.28095 7.96757 2 8.67481 2C9.38206 2 10.0603 2.28095 10.5604 2.78105C11.0605 3.28115 11.3415 3.95942 11.3415 4.66667V7.33333M5.34148 7.33333H12.0081C12.7445 7.33333 13.3415 7.93029 13.3415 8.66667V12.6667C13.3415 13.403 12.7445 14 12.0081 14H5.34148C4.6051 14 4.00815 13.403 4.00815 12.6667V8.66667C4.00815 7.93029 4.6051 7.33333 5.34148 7.33333ZM9.34148 10.6667C9.34148 11.0349 9.043 11.3333 8.67481 11.3333C8.30663 11.3333 8.00815 11.0349 8.00815 10.6667C8.00815 10.2985 8.30663 10 8.67481 10C9.043 10 9.34148 10.2985 9.34148 10.6667Z" stroke="#F8FAFC" stroke-width="1.5" stroke-linecap="round" stroke-linejoin="round"/>
</svg>
