<svg xmlns="http://www.w3.org/2000/svg" width="17" height="16" viewBox="0 0 17 16" fill="none">
  <path d="M6.00818 7.33333V4.66667C6.00818 3.95942 6.28913 3.28115 6.78923 2.78105C7.28932 2.28095 7.9676 2 8.67485 2C9.38209 2 10.0604 2.28095 10.5605 2.78105C11.0606 3.28115 11.3415 3.95942 11.3415 4.66667V7.33333M5.34151 7.33333H12.0082C12.7446 7.33333 13.3415 7.93029 13.3415 8.66667V12.6667C13.3415 13.403 12.7446 14 12.0082 14H5.34151C4.60513 14 4.00818 13.403 4.00818 12.6667V8.66667C4.00818 7.93029 4.60513 7.33333 5.34151 7.33333ZM9.34151 10.6667C9.34151 11.0349 9.04304 11.3333 8.67485 11.3333C8.30666 11.3333 8.00818 11.0349 8.00818 10.6667C8.00818 10.2985 8.30666 10 8.67485 10C9.04304 10 9.34151 10.2985 9.34151 10.6667Z" stroke="#020617" stroke-width="1.5" stroke-linecap="round" stroke-linejoin="round"/>
</svg>