<svg xmlns="http://www.w3.org/2000/svg" width="8" height="6" viewBox="0 0 8 6" fill="none">
  <path d="M3.04027 1.01867L0.176269 4.66667C0.080677 4.78823 0.021225 4.93425 0.00471152 5.08801C-0.0118019 5.24178 0.0152898 5.39709 0.0828889 5.53618C0.150488 5.67527 0.255866 5.79253 0.386972 5.87456C0.518078 5.95658 0.66962 6.00005 0.82427 6H6.5576C6.71225 6.00005 6.8638 5.95658 6.9949 5.87456C7.12601 5.79253 7.23139 5.67527 7.29898 5.53618C7.36658 5.39709 7.39368 5.24178 7.37716 5.08801C7.36065 4.93425 7.3012 4.78823 7.2056 4.66667L4.33627 1.01867C4.25917 0.920511 4.16078 0.841153 4.04852 0.786583C3.93627 0.732014 3.81309 0.703659 3.68827 0.703659C3.56345 0.703659 3.44027 0.732014 3.32801 0.786583C3.21576 0.841153 3.11737 0.920511 3.04027 1.01867Z" fill="currentColor"/>
</svg>