<svg xmlns="http://www.w3.org/2000/svg" width="8" height="6" viewBox="0 0 8 6" fill="none">
  <path d="M4.3416 4.98132L7.2056 1.33332C7.30119 1.21175 7.36065 1.06574 7.37716 0.91197C7.39367 0.758205 7.36658 0.602896 7.29898 0.463803C7.23138 0.324711 7.12601 0.207448 6.9949 0.125427C6.86379 0.0434046 6.71225 -6.67572e-05 6.5576 -1.66893e-05H0.824269C0.66962 -6.67572e-05 0.518078 0.0434046 0.386972 0.125427C0.255866 0.207448 0.150488 0.324711 0.0828889 0.463803C0.0152898 0.602896 -0.0118019 0.758205 0.00471152 0.91197C0.021225 1.06574 0.080677 1.21175 0.176269 1.33332L3.0456 4.98132C3.1227 5.07947 3.22109 5.15883 3.33335 5.2134C3.4456 5.26797 3.56879 5.29633 3.6936 5.29633C3.81842 5.29633 3.9416 5.26797 4.05386 5.2134C4.16611 5.15883 4.2645 5.07947 4.3416 4.98132Z" fill="currentColor"/>
</svg>