<svg xmlns="http://www.w3.org/2000/svg" width="32" height="32" viewBox="0 0 32 32" fill="none">
  <rect width="32" height="32" rx="16" fill="#F8FAFC"/>
  <path fill-rule="evenodd" clip-rule="evenodd" d="M7.46085 5.55443C7.56605 5.67346 10.9223 9.86216 12.4863 11.8263C14.3151 14.1231 14.2539 14.0394 14.2242 14.2016C14.1701 14.4962 13.5089 14.7633 13.1521 14.6346C12.8548 14.5273 12.8414 14.5084 11.0649 11.7008C10.6172 10.993 10.2309 10.3888 10.2066 10.3581L10.1625 10.3022L10.1914 10.3627C10.2073 10.3959 10.5737 11.0709 11.0056 11.8626C12.2611 14.1641 12.4375 14.5017 12.4365 14.6019C12.4357 14.6929 12.3537 14.8414 12.2127 15.0076C11.9552 15.311 11.8272 15.6715 11.7272 16.3745C11.5877 17.3554 11.3407 17.8666 10.4589 18.9994C9.74817 19.9123 9.63909 20.1648 9.63836 20.8985C9.63767 21.5953 9.77126 22.0038 10.271 22.8326C10.5351 23.2708 10.6625 23.5287 10.6625 23.6255C10.6625 23.8455 12.0911 23.376 12.7167 22.9504C13.7613 22.2397 13.7374 21.3968 12.65 20.5979C11.5929 19.8213 11.5078 19.3899 12.1368 17.9951C12.4031 17.4046 12.4758 17.1265 12.5414 16.4464C12.6211 15.6205 12.7119 15.5063 13.3846 15.3855C14.3984 15.2034 14.8724 14.7673 14.8735 14.0157L14.8737 13.8585L14.7168 13.677C13.6017 12.388 7.4609 5.5 7.4268 5.5C7.41909 5.5 7.4344 5.52448 7.46085 5.55443ZM14.1406 10.1065C14.1406 10.1119 14.2178 10.1291 14.3122 10.1447C15.5195 10.3436 16.2106 10.8587 17.4286 12.4674C18.8799 14.3843 19.412 14.6734 21.7475 14.8142C23.083 14.8946 23.5173 15.0736 23.9372 15.7167C24.0472 15.8852 24.0543 15.8589 23.9848 15.538C23.8587 14.9551 23.4744 14.2318 22.9718 13.6319L22.9036 13.5505L22.8381 13.8133C22.67 14.4874 22.3529 14.8669 22.0754 14.7259C21.8716 14.6223 21.8365 14.4659 21.9562 14.1941C22.102 13.8631 22.132 13.3531 22.0317 12.909L21.9922 12.7337L21.7988 12.6107C20.679 11.8988 19.277 11.6323 17.8435 11.859L17.5832 11.9002L17.1692 11.4732C16.3412 10.6195 15.7353 10.2639 14.8859 10.1332C14.6738 10.1006 14.1406 10.0815 14.1406 10.1065ZM22.3798 10.6094C22.2852 10.8442 22.2386 11.0676 22.2088 11.4298C22.1641 11.9718 22.1919 11.9515 21.735 11.7767C21.4634 11.6728 20.9122 11.4997 20.853 11.4997C20.838 11.4997 21.0016 11.5897 21.2165 11.6996C22.269 12.2383 22.3822 12.4099 22.3849 13.4714C22.3862 13.9917 22.3829 14.0369 22.3334 14.1669C22.2589 14.3628 22.2914 14.3401 22.3851 14.1306C22.5157 13.8388 22.5528 13.6399 22.5841 13.0655C22.6138 12.5195 22.695 12.5382 23.522 13.2808C23.6522 13.3976 23.743 13.472 23.7239 13.446C23.5972 13.2737 23.3184 12.948 23.0742 12.6872C22.5457 12.1227 22.4788 12.0184 22.4137 11.657C22.3356 11.2242 22.3435 10.8175 22.4351 10.5521C22.4936 10.3826 22.455 10.4225 22.3798 10.6094ZM14.0808 10.8102C13.9782 12.2109 14.9383 13.837 15.9754 14.0189C16.3336 14.0817 16.3682 13.9949 16.1372 13.6133C15.8889 13.2032 15.8307 13.0529 15.7 12.4841C15.3909 11.1391 15.1026 10.7822 14.1725 10.5928L14.0979 10.5776L14.0808 10.8102ZM18.8257 14.9388C18.827 16.2379 19.5237 16.9399 21.7238 17.8583C23.9726 18.7971 24.5567 19.2703 24.6633 20.24C24.6873 20.4573 24.7102 20.453 24.828 20.209C25.3184 19.194 25.2089 17.8674 24.5621 16.9862C23.9739 16.1848 23.1013 15.7543 21.5582 15.5042C19.7656 15.2137 19.4886 15.129 18.9378 14.7028L18.8254 14.6159L18.8257 14.9388ZM15.1152 15.5898C14.6104 15.8477 14.4503 16.6606 14.8592 16.8895C15.1397 17.0465 15.9898 16.854 16.2334 16.5782C16.688 16.0638 15.7721 15.2541 15.1152 15.5898ZM15.7866 15.6959C16.0132 15.8477 15.9928 16.0632 15.7405 16.1833C15.3096 16.3884 14.8426 15.9728 15.2137 15.7146C15.3575 15.6146 15.6509 15.605 15.7866 15.6959ZM20.0696 17.7051C20.4034 18.8222 20.1013 19.7109 19.2283 20.1802C18.916 20.348 18.7444 20.3924 17.6187 20.5967C16.7669 20.7512 16.3048 20.9152 15.8205 21.2347C15.665 21.3374 15.6702 21.339 15.908 21.2623C16.3956 21.105 16.7522 21.0494 17.7015 20.9828C19.0846 20.8858 19.5512 20.7218 20.0747 20.1486C20.6798 19.4862 20.6972 18.3844 20.1137 17.6809L20.0335 17.5841L20.0696 17.7051ZM20.9842 18.1103C20.8896 18.2305 20.8517 18.9149 20.9207 19.2564C21.0284 19.7895 21.1679 20.0678 21.9015 21.213C23.0425 22.9942 23.1843 23.5433 22.7638 24.5515C22.642 24.8436 22.6356 24.8343 22.8704 24.7063C24.4881 23.825 25.0094 21.4631 23.8992 20.045C23.5499 19.5989 23.1264 19.2885 21.9846 18.6421C21.646 18.4504 21.2929 18.2455 21.2001 18.1868C21.0103 18.0668 21.0166 18.0691 20.9842 18.1103ZM10.7809 20.6091C10.976 20.7092 11.0541 21.0058 10.9398 21.2123C10.7438 21.566 10.2915 21.4329 10.459 21.0707C10.514 20.9519 10.5209 20.8622 10.4752 20.8622C10.4403 20.8622 10.3549 20.7617 10.3549 20.7207C10.3549 20.5744 10.592 20.5123 10.7809 20.6091ZM15.8087 21.9653C14.9033 22.1293 14.076 22.5638 13.0717 23.4028C13.0315 23.4364 13.0549 23.4442 13.3528 23.4956C14.284 23.6563 14.544 23.7966 15.2881 24.54C15.8692 25.1205 16.0832 25.2417 16.5256 25.2407C17.5863 25.2385 17.8742 23.7152 16.8546 23.5C16.3036 23.3837 15.8599 24.0236 16.3009 24.2986C16.4062 24.3642 16.4365 24.358 16.339 24.2907C16.0109 24.0647 16.2798 23.5819 16.7085 23.6272C17.4897 23.7096 17.3898 24.8635 16.6013 24.8649C15.5788 24.8668 15.41 23.4638 16.4002 23.1934C17.1898 22.9777 17.8223 23.477 18.3992 24.7712C18.6584 25.3527 18.7417 25.5065 18.9221 25.7356C19.4725 26.4352 20.2541 26.5246 21.0828 25.9828C21.2872 25.8491 21.2921 25.8155 21.0955 25.8948C20.4795 26.143 19.8064 26.0737 19.512 25.7317C19.2909 25.4749 19.2018 25.2076 19.0741 24.4185C18.8639 23.1199 18.5651 22.6051 17.7962 22.217C17.2684 21.9506 16.457 21.8479 15.8087 21.9653Z" fill="#FF007A"/>
</svg>