<svg xmlns="http://www.w3.org/2000/svg" width="17" height="16" viewBox="0 0 17 16" fill="none">
  <path d="M5.93359 7.33331V3.99998C5.93359 3.29274 6.21455 2.61446 6.71464 2.11436C7.21474 1.61426 7.89302 1.33331 8.60026 1.33331C9.3075 1.33331 9.98578 1.61426 10.4859 2.11436C10.986 2.61446 11.2669 3.29274 11.2669 3.99998M5.26693 7.33331H11.9336C12.67 7.33331 13.2669 7.93027 13.2669 8.66665V12.6666C13.2669 13.403 12.67 14 11.9336 14H5.26693C4.53055 14 3.93359 13.403 3.93359 12.6666V8.66665C3.93359 7.93027 4.53055 7.33331 5.26693 7.33331ZM9.26693 10.6666C9.26693 11.0348 8.96845 11.3333 8.60026 11.3333C8.23207 11.3333 7.93359 11.0348 7.93359 10.6666C7.93359 10.2985 8.23207 9.99998 8.60026 9.99998C8.96845 9.99998 9.26693 10.2985 9.26693 10.6666Z" stroke="#020617" stroke-width="1.5" stroke-linecap="round" stroke-linejoin="round"/>
</svg>