<svg width="21" height="21" viewBox="0 0 21 21" fill="none" xmlns="http://www.w3.org/2000/svg">
<circle cx="10.7734" cy="10.1484" r="10" fill="#334155"/>
<path d="M5.92116 7.33026L7.54048 12.0689H7.60582L9.22514 7.33026H10.174L8.08026 13.1484H7.06605L4.9723 7.33026H5.92116ZM10.9347 13.1484V12.5121L12.9034 10.4723C13.1136 10.2507 13.2869 10.0566 13.4233 9.88991C13.5616 9.72135 13.6648 9.56132 13.733 9.4098C13.8011 9.25829 13.8352 9.0973 13.8352 8.92685C13.8352 8.73366 13.7898 8.567 13.6989 8.42685C13.608 8.2848 13.4839 8.1759 13.3267 8.10014C13.1695 8.02249 12.9924 7.98366 12.7955 7.98366C12.5871 7.98366 12.4053 8.02628 12.25 8.11151C12.0947 8.19673 11.9754 8.317 11.892 8.4723C11.8087 8.6276 11.767 8.80942 11.767 9.01776H10.929C10.929 8.66359 11.0104 8.35393 11.1733 8.08878C11.3362 7.82363 11.5597 7.61813 11.8438 7.4723C12.1278 7.32457 12.4508 7.25071 12.8125 7.25071C13.178 7.25071 13.5 7.32363 13.7784 7.46946C14.0587 7.6134 14.2775 7.81037 14.4347 8.06037C14.5919 8.30848 14.6705 8.58878 14.6705 8.90128C14.6705 9.11719 14.6297 9.32836 14.5483 9.5348C14.4688 9.74124 14.3295 9.97135 14.1307 10.2251C13.9318 10.477 13.6553 10.7829 13.3011 11.1428L12.1449 12.353V12.3956H14.7642V13.1484H10.9347Z" fill="#CBD5E1"/>
</svg>
