<svg xmlns="http://www.w3.org/2000/svg" width="21" height="21" viewBox="0 0 21 21" fill="none">
  <path d="M11.9022 10.7272L17.1522 5.48554C17.3091 5.32862 17.3972 5.11579 17.3972 4.89387C17.3972 4.67195 17.3091 4.45913 17.1522 4.30221C16.9952 4.14529 16.7824 4.05713 16.5605 4.05713C16.3386 4.05713 16.1257 4.14529 15.9688 4.30221L10.7272 9.55221L5.4855 4.30221C5.32858 4.14529 5.11575 4.05713 4.89383 4.05713C4.67191 4.05713 4.45908 4.14529 4.30216 4.30221C4.14524 4.45913 4.05709 4.67195 4.05709 4.89387C4.05709 5.11579 4.14524 5.32862 4.30216 5.48554L9.55216 10.7272L4.30216 15.9689C4.22406 16.0463 4.16206 16.1385 4.11975 16.2401C4.07745 16.3416 4.05566 16.4505 4.05566 16.5605C4.05566 16.6705 4.07745 16.7795 4.11975 16.881C4.16206 16.9826 4.22406 17.0747 4.30216 17.1522C4.37963 17.2303 4.4718 17.2923 4.57335 17.3346C4.6749 17.3769 4.78382 17.3987 4.89383 17.3987C5.00384 17.3987 5.11276 17.3769 5.21431 17.3346C5.31586 17.2923 5.40803 17.2303 5.4855 17.1522L10.7272 11.9022L15.9688 17.1522C16.0463 17.2303 16.1385 17.2923 16.24 17.3346C16.3416 17.3769 16.4505 17.3987 16.5605 17.3987C16.6705 17.3987 16.7794 17.3769 16.881 17.3346C16.9825 17.2923 17.0747 17.2303 17.1522 17.1522C17.2303 17.0747 17.2923 16.9826 17.3346 16.881C17.3769 16.7795 17.3987 16.6705 17.3987 16.5605C17.3987 16.4505 17.3769 16.3416 17.3346 16.2401C17.2923 16.1385 17.2303 16.0463 17.1522 15.9689L11.9022 10.7272Z" fill="currentColor"/>
</svg>