<svg width="24" height="24" viewBox="0 0 24 24" fill="none" xmlns="http://www.w3.org/2000/svg">
<path d="M21.08 8.58V15.42C21.08 16.54 20.48 17.58 19.51 18.15L13.57 21.58C12.6 22.14 11.4 22.14 10.42 21.58L4.48004 18.15C4.00181 17.8727 3.60497 17.4745 3.32939 16.9953C3.0538 16.5161 2.90918 15.9728 2.91004 15.42V8.58C2.91004 7.46 3.51004 6.42 4.48004 5.85L10.42 2.42C11.39 1.86 12.59 1.86 13.57 2.42L19.51 5.85C20.48 6.42 21.08 7.45 21.08 8.58Z" stroke="currentColor" stroke-width="2" stroke-linecap="round" stroke-linejoin="round"/>
<path d="M16 16.6601C16 14.8601 14.21 13.4001 12 13.4001C9.79 13.4001 8 14.8601 8 16.6601M12 11.0001C12.618 11.0001 13.2106 10.7546 13.6476 10.3176C14.0845 9.88069 14.33 9.28804 14.33 8.67009C14.33 8.05213 14.0845 7.45949 13.6476 7.02253C13.2106 6.58557 12.618 6.34009 12 6.34009C11.382 6.34009 10.7894 6.58557 10.3524 7.02253C9.91548 7.45949 9.67 8.05213 9.67 8.67009C9.67 9.28804 9.91548 9.88069 10.3524 10.3176C10.7894 10.7546 11.382 11.0001 12 11.0001Z" stroke="#101010" stroke-width="2" stroke-linecap="round" stroke-linejoin="round"/>
</svg>
