<svg xmlns="http://www.w3.org/2000/svg" width="17" height="16" viewBox="0 0 17 16" fill="none">
  <path d="M9.21201 7.99988L13.412 3.80655C13.5375 3.68101 13.6081 3.51075 13.6081 3.33321C13.6081 3.15568 13.5375 2.98542 13.412 2.85988C13.2865 2.73434 13.1162 2.66382 12.9387 2.66382C12.7611 2.66382 12.5909 2.73434 12.4653 2.85988L8.27201 7.05988L4.07868 2.85988C3.95314 2.73434 3.78288 2.66382 3.60535 2.66382C3.42781 2.66382 3.25755 2.73434 3.13201 2.85988C3.00648 2.98542 2.93595 3.15568 2.93595 3.33321C2.93595 3.51075 3.00648 3.68101 3.13201 3.80655L7.33201 7.99988L3.13201 12.1932C3.06953 12.2552 3.01993 12.3289 2.98609 12.4102C2.95224 12.4914 2.93481 12.5785 2.93481 12.6665C2.93481 12.7546 2.95224 12.8417 2.98609 12.9229C3.01993 13.0042 3.06953 13.0779 3.13201 13.1399C3.19399 13.2024 3.26772 13.252 3.34896 13.2858C3.4302 13.3197 3.51734 13.3371 3.60535 13.3371C3.69335 13.3371 3.78049 13.3197 3.86173 13.2858C3.94297 13.252 4.0167 13.2024 4.07868 13.1399L8.27201 8.93988L12.4653 13.1399C12.5273 13.2024 12.6011 13.252 12.6823 13.2858C12.7635 13.3197 12.8507 13.3371 12.9387 13.3371C13.0267 13.3371 13.1138 13.3197 13.1951 13.2858C13.2763 13.252 13.35 13.2024 13.412 13.1399C13.4745 13.0779 13.5241 13.0042 13.5579 12.9229C13.5918 12.8417 13.6092 12.7546 13.6092 12.6665C13.6092 12.5785 13.5918 12.4914 13.5579 12.4102C13.5241 12.3289 13.4745 12.2552 13.412 12.1932L9.21201 7.99988Z" fill="currentColor"/>
</svg>