<svg width="34" height="34" viewBox="0 0 34 34" fill="none" xmlns="http://www.w3.org/2000/svg">
<rect x="0.54541" y="0.272705" width="33.4545" height="33.4545" rx="16.7273" fill="#1E293B"/>
<path d="M18.212 16.9999L22.412 12.8065C22.5375 12.681 22.6081 12.5107 22.6081 12.3332C22.6081 12.1557 22.5375 11.9854 22.412 11.8599C22.2865 11.7343 22.1162 11.6638 21.9387 11.6638C21.7611 11.6638 21.5909 11.7343 21.4653 11.8599L17.272 16.0599L13.0787 11.8599C12.9531 11.7343 12.7829 11.6638 12.6053 11.6638C12.4278 11.6638 12.2575 11.7343 12.132 11.8599C12.0065 11.9854 11.936 12.1557 11.936 12.3332C11.936 12.5107 12.0065 12.681 12.132 12.8065L16.332 16.9999L12.132 21.1932C12.0695 21.2552 12.0199 21.3289 11.9861 21.4102C11.9522 21.4914 11.9348 21.5785 11.9348 21.6665C11.9348 21.7546 11.9522 21.8417 11.9861 21.9229C12.0199 22.0042 12.0695 22.0779 12.132 22.1399C12.194 22.2024 12.2677 22.252 12.349 22.2858C12.4302 22.3197 12.5173 22.3371 12.6053 22.3371C12.6934 22.3371 12.7805 22.3197 12.8617 22.2858C12.943 22.252 13.0167 22.2024 13.0787 22.1399L17.272 17.9399L21.4653 22.1399C21.5273 22.2024 21.6011 22.252 21.6823 22.2858C21.7635 22.3197 21.8507 22.3371 21.9387 22.3371C22.0267 22.3371 22.1138 22.3197 22.1951 22.2858C22.2763 22.252 22.35 22.2024 22.412 22.1399C22.4745 22.0779 22.5241 22.0042 22.5579 21.9229C22.5918 21.8417 22.6092 21.7546 22.6092 21.6665C22.6092 21.5785 22.5918 21.4914 22.5579 21.4102C22.5241 21.3289 22.4745 21.2552 22.412 21.1932L18.212 16.9999Z" fill="#F8FAFC"/>
</svg>
