<svg xmlns="http://www.w3.org/2000/svg" width="99" height="21" viewBox="0 0 99 21" fill="none">
  <path d="M7.95852 20.6486C6.63949 20.6486 5.44729 20.3442 4.38192 19.7354C3.33346 19.1097 2.49639 18.2642 1.87069 17.1988C1.26191 16.1335 0.95752 14.9328 0.95752 13.5969C0.95752 12.2609 1.23654 11.0687 1.7946 10.0203C2.36956 8.9549 3.14745 8.11782 4.12826 7.50904C5.10908 6.88334 6.21673 6.5705 7.4512 6.5705C8.44893 6.5705 9.37056 6.78188 10.2161 7.20465C11.0616 7.6105 11.7719 8.16855 12.3468 8.8788V2.02999C12.3468 1.64105 12.4652 1.3282 12.702 1.09145C12.9556 0.854703 13.2685 0.736328 13.6405 0.736328C14.0294 0.736328 14.3423 0.854703 14.579 1.09145C14.8158 1.3282 14.9342 1.64105 14.9342 2.02999V13.5969C14.9342 14.9328 14.6213 16.1335 13.9956 17.1988C13.3868 18.2642 12.5582 19.1097 11.5098 19.7354C10.4613 20.3442 9.27755 20.6486 7.95852 20.6486ZM7.95852 18.3657C8.82097 18.3657 9.5904 18.1627 10.2668 17.7569C10.9432 17.3341 11.4759 16.7592 11.8649 16.032C12.2538 15.3048 12.4483 14.4931 12.4483 13.5969C12.4483 12.6837 12.2538 11.872 11.8649 11.1617C11.4759 10.4515 10.9432 9.89344 10.2668 9.48758C9.5904 9.06482 8.82097 8.85343 7.95852 8.85343C7.11299 8.85343 6.34356 9.06482 5.65022 9.48758C4.9738 9.89344 4.43266 10.4515 4.0268 11.1617C3.63786 11.872 3.44338 12.6837 3.44338 13.5969C3.44338 14.4931 3.63786 15.3048 4.0268 16.032C4.43266 16.7592 4.9738 17.3341 5.65022 17.7569C6.34356 18.1627 7.11299 18.3657 7.95852 18.3657Z" fill="#F8FAFC"/>
  <path d="M23.993 20.6486C22.5894 20.6486 21.338 20.3527 20.2388 19.7608C19.1565 19.152 18.3025 18.3234 17.6769 17.2749C17.0681 16.2096 16.7637 14.992 16.7637 13.6222C16.7637 12.2356 17.0512 11.018 17.6261 9.96953C18.218 8.90416 19.0297 8.07554 20.0613 7.48367C21.0928 6.87489 22.2765 6.5705 23.6125 6.5705C24.9315 6.5705 26.0645 6.86643 27.0115 7.4583C27.9585 8.03327 28.6772 8.83652 29.1676 9.86807C29.6749 10.8827 29.9286 12.058 29.9286 13.3939C29.9286 13.7152 29.8187 13.9858 29.5989 14.2056C29.379 14.4086 29.1 14.51 28.7618 14.51H18.5393V12.4808H28.6857L27.6457 13.191C27.6288 12.3455 27.4597 11.593 27.1384 10.9334C26.8171 10.257 26.3605 9.72433 25.7686 9.33539C25.1767 8.94644 24.458 8.75197 23.6125 8.75197C22.6486 8.75197 21.82 8.96335 21.1266 9.38612C20.4502 9.80888 19.9344 10.3923 19.5793 11.1364C19.2242 11.8635 19.0466 12.6921 19.0466 13.6222C19.0466 14.5523 19.258 15.3809 19.6808 16.1081C20.1035 16.8353 20.6869 17.4102 21.431 17.833C22.1751 18.2557 23.0291 18.4671 23.993 18.4671C24.5172 18.4671 25.0499 18.3741 25.591 18.1881C26.1491 17.9852 26.5972 17.7569 26.9354 17.5032C27.1891 17.3172 27.4597 17.2242 27.7471 17.2242C28.0515 17.2073 28.3136 17.2918 28.5335 17.4779C28.821 17.7315 28.9732 18.0105 28.9901 18.3149C29.007 18.6193 28.8717 18.8814 28.5842 19.1013C28.0093 19.5579 27.2905 19.9299 26.4281 20.2174C25.5826 20.5049 24.7709 20.6486 23.993 20.6486Z" fill="#F8FAFC"/>
  <path d="M49.412 20.5725C49.04 20.5725 48.7272 20.4541 48.4735 20.2174C48.2367 19.9637 48.1184 19.6509 48.1184 19.2788V12.0242C48.1184 10.9588 47.8563 10.1725 47.332 9.66514C46.8078 9.14091 46.1229 8.8788 45.2774 8.8788C44.398 8.8788 43.6709 9.18319 43.0959 9.79197C42.5379 10.4008 42.2588 11.1786 42.2588 12.1256H40.1535C40.1535 11.0264 40.3902 10.0625 40.8637 9.23392C41.3372 8.38839 41.9967 7.72888 42.8423 7.25538C43.7047 6.78188 44.6855 6.54513 45.7847 6.54513C46.7486 6.54513 47.6026 6.75651 48.3467 7.17928C49.0907 7.60205 49.6657 8.22774 50.0716 9.05636C50.4943 9.86807 50.7057 10.8573 50.7057 12.0242V19.2788C50.7057 19.6509 50.5873 19.9637 50.3506 20.2174C50.1138 20.4541 49.801 20.5725 49.412 20.5725ZM32.4929 20.5725C32.1209 20.5725 31.8081 20.4541 31.5544 20.2174C31.3177 19.9637 31.1993 19.6509 31.1993 19.2788V7.99099C31.1993 7.60205 31.3177 7.2892 31.5544 7.05245C31.8081 6.8157 32.1209 6.69733 32.4929 6.69733C32.8819 6.69733 33.1947 6.8157 33.4315 7.05245C33.6682 7.2892 33.7866 7.60205 33.7866 7.99099V19.2788C33.7866 19.6509 33.6682 19.9637 33.4315 20.2174C33.1947 20.4541 32.8819 20.5725 32.4929 20.5725ZM40.9652 20.5725C40.5931 20.5725 40.2803 20.4541 40.0266 20.2174C39.7899 19.9637 39.6715 19.6509 39.6715 19.2788V12.0242C39.6715 10.9588 39.4094 10.1725 38.8852 9.66514C38.3609 9.14091 37.6761 8.8788 36.8305 8.8788C35.9512 8.8788 35.224 9.18319 34.6491 9.79197C34.0741 10.4008 33.7866 11.1786 33.7866 12.1256H32.1886C32.1886 11.0264 32.4084 10.0625 32.8481 9.23392C33.2877 8.38839 33.8965 7.72888 34.6744 7.25538C35.4523 6.78188 36.3401 6.54513 37.3378 6.54513C38.3018 6.54513 39.1557 6.75651 39.8998 7.17928C40.6439 7.60205 41.2188 8.22774 41.6247 9.05636C42.0475 9.86807 42.2588 10.8573 42.2588 12.0242V19.2788C42.2588 19.6509 42.1405 19.9637 41.9037 20.2174C41.667 20.4541 41.3541 20.5725 40.9652 20.5725Z" fill="#F8FAFC"/>
  <path d="M59.4944 20.6486C58.0908 20.6486 56.8394 20.3527 55.7402 19.7608C54.658 19.152 53.804 18.3234 53.1783 17.2749C52.5695 16.2096 52.2651 14.992 52.2651 13.6222C52.2651 12.2356 52.5526 11.018 53.1276 9.96953C53.7194 8.90416 54.5311 8.07554 55.5627 7.48367C56.5942 6.87489 57.778 6.5705 59.1139 6.5705C60.4329 6.5705 61.566 6.86643 62.513 7.4583C63.46 8.03327 64.1787 8.83652 64.6691 9.86807C65.1764 10.8827 65.43 12.058 65.43 13.3939C65.43 13.7152 65.3201 13.9858 65.1003 14.2056C64.8804 14.4086 64.6014 14.51 64.2632 14.51H54.0407V12.4808H64.1871L63.1471 13.191C63.1302 12.3455 62.9611 11.593 62.6398 10.9334C62.3185 10.257 61.8619 9.72433 61.27 9.33539C60.6782 8.94644 59.9595 8.75197 59.1139 8.75197C58.15 8.75197 57.3214 8.96335 56.6281 9.38612C55.9516 9.80888 55.4359 10.3923 55.0807 11.1364C54.7256 11.8635 54.548 12.6921 54.548 13.6222C54.548 14.5523 54.7594 15.3809 55.1822 16.1081C55.605 16.8353 56.1884 17.4102 56.9324 17.833C57.6765 18.2557 58.5305 18.4671 59.4944 18.4671C60.0186 18.4671 60.5513 18.3741 61.0925 18.1881C61.6505 17.9852 62.0986 17.7569 62.4369 17.5032C62.6905 17.3172 62.9611 17.2242 63.2486 17.2242C63.553 17.2073 63.8151 17.2918 64.0349 17.4779C64.3224 17.7315 64.4746 18.0105 64.4915 18.3149C64.5084 18.6193 64.3731 18.8814 64.0856 19.1013C63.5107 19.5579 62.792 19.9299 61.9295 20.2174C61.084 20.5049 60.2723 20.6486 59.4944 20.6486Z" fill="#F8FAFC"/>
  <path d="M71.7485 20.5471C70.903 20.5471 70.142 20.3358 69.4656 19.913C68.7892 19.4733 68.2565 18.8814 67.8675 18.1374C67.4786 17.3933 67.2841 16.5562 67.2841 15.6261V3.52658C67.2841 3.15455 67.4025 2.85016 67.6393 2.61341C67.876 2.37666 68.1804 2.25829 68.5524 2.25829C68.9245 2.25829 69.2289 2.37666 69.4656 2.61341C69.7024 2.85016 69.8207 3.15455 69.8207 3.52658V15.6261C69.8207 16.3026 70.0067 16.8691 70.3788 17.3257C70.7508 17.7822 71.2074 18.0105 71.7485 18.0105H72.611C72.9154 18.0105 73.169 18.1289 73.372 18.3657C73.5918 18.6024 73.7017 18.9068 73.7017 19.2788C73.7017 19.6509 73.558 19.9553 73.2705 20.192C72.9999 20.4288 72.6448 20.5471 72.2051 20.5471H71.7485ZM66.1173 9.36075C65.7622 9.36075 65.4747 9.25929 65.2549 9.05636C65.035 8.85343 64.9251 8.59977 64.9251 8.29538C64.9251 7.95717 65.035 7.6866 65.2549 7.48367C65.4747 7.28074 65.7622 7.17928 66.1173 7.17928H71.9768C72.332 7.17928 72.6194 7.28074 72.8393 7.48367C73.0591 7.6866 73.169 7.95717 73.169 8.29538C73.169 8.59977 73.0591 8.85343 72.8393 9.05636C72.6194 9.25929 72.332 9.36075 71.9768 9.36075H66.1173Z" fill="#F8FAFC"/>
  <path d="M81.3716 20.6486C79.968 20.6486 78.7166 20.3527 77.6174 19.7608C76.5351 19.152 75.6811 18.3234 75.0554 17.2749C74.4466 16.2096 74.1423 14.992 74.1423 13.6222C74.1423 12.2356 74.4297 11.018 75.0047 9.96953C75.5966 8.90416 76.4083 8.07554 77.4398 7.48367C78.4714 6.87489 79.6551 6.5705 80.9911 6.5705C82.3101 6.5705 83.4431 6.86643 84.3901 7.4583C85.3371 8.03327 86.0558 8.83652 86.5462 9.86807C87.0535 10.8827 87.3072 12.058 87.3072 13.3939C87.3072 13.7152 87.1973 13.9858 86.9774 14.2056C86.7576 14.4086 86.4786 14.51 86.1404 14.51H75.9179V12.4808H86.0642L85.0242 13.191C85.0073 12.3455 84.8382 11.593 84.5169 10.9334C84.1956 10.257 83.739 9.72433 83.1472 9.33539C82.5553 8.94644 81.8366 8.75197 80.9911 8.75197C80.0272 8.75197 79.1985 8.96335 78.5052 9.38612C77.8288 9.80888 77.313 10.3923 76.9579 11.1364C76.6027 11.8635 76.4252 12.6921 76.4252 13.6222C76.4252 14.5523 76.6366 15.3809 77.0593 16.1081C77.4821 16.8353 78.0655 17.4102 78.8096 17.833C79.5536 18.2557 80.4076 18.4671 81.3716 18.4671C81.8958 18.4671 82.4285 18.3741 82.9696 18.1881C83.5277 17.9852 83.9758 17.7569 84.314 17.5032C84.5677 17.3172 84.8382 17.2242 85.1257 17.2242C85.4301 17.2073 85.6922 17.2918 85.9121 17.4779C86.1995 17.7315 86.3517 18.0105 86.3686 18.3149C86.3856 18.6193 86.2503 18.8814 85.9628 19.1013C85.3878 19.5579 84.6691 19.9299 83.8067 20.2174C82.9611 20.5049 82.1494 20.6486 81.3716 20.6486Z" fill="#F8FAFC"/>
  <path d="M89.8208 11.872C89.8208 10.8573 90.066 9.95262 90.5564 9.15782C91.0637 8.34611 91.7402 7.70351 92.5857 7.23001C93.4312 6.75651 94.3613 6.51976 95.3759 6.51976C96.3906 6.51976 97.1431 6.68887 97.6335 7.02708C98.1408 7.34839 98.3353 7.73733 98.2169 8.19392C98.1662 8.43067 98.0647 8.61668 97.9125 8.75197C97.7772 8.87034 97.6166 8.94644 97.4306 8.98026C97.2446 9.01408 97.0416 9.00563 96.8218 8.9549C95.7395 8.73506 94.7672 8.71815 93.9047 8.90416C93.0423 9.09018 92.3574 9.43685 91.8501 9.94417C91.3597 10.4515 91.1145 11.0941 91.1145 11.872H89.8208ZM89.8462 20.5471C89.4403 20.5471 89.1275 20.4457 88.9076 20.2427C88.6878 20.0229 88.5779 19.7016 88.5779 19.2788V7.94026C88.5779 7.5344 88.6878 7.22156 88.9076 7.00172C89.1275 6.78188 89.4403 6.67196 89.8462 6.67196C90.2689 6.67196 90.5818 6.78188 90.7847 7.00172C91.0045 7.20465 91.1145 7.51749 91.1145 7.94026V19.2788C91.1145 19.6847 91.0045 19.9975 90.7847 20.2174C90.5818 20.4372 90.2689 20.5471 89.8462 20.5471Z" fill="#F8FAFC"/>
</svg>