<svg width="24" height="24" viewBox="0 0 24 24" fill="none" xmlns="http://www.w3.org/2000/svg">
<path d="M6.44444 15.3333V15.3444M17.5556 17.5555C17.5556 18.7828 18.5505 19.7777 19.7778 19.7777C21.0051 19.7777 22 18.7828 22 17.5555C22 16.3282 21.0051 15.3333 19.7778 15.3333C18.5505 15.3333 17.5556 16.3282 17.5556 17.5555ZM17.5556 17.5555H10.3333M20.8889 15.5555V10.8888C20.8889 10.5941 20.7718 10.3115 20.5635 10.1032C20.3551 9.89479 20.0725 9.77772 19.7778 9.77772H13.1111L10.8889 4.22217H4.22222V11.4444M18.6667 4.22217H17.5556C17.2609 4.22217 16.9783 4.33923 16.7699 4.54761C16.5615 4.75598 16.4444 5.03859 16.4444 5.33328V9.77772M10.8889 15.3333C10.8889 17.7879 8.89904 19.7777 6.44444 19.7777C3.98985 19.7777 2 17.7879 2 15.3333C2 12.8787 3.98985 10.8888 6.44444 10.8888C8.89904 10.8888 10.8889 12.8787 10.8889 15.3333Z" stroke="currentColor" stroke-width="2" stroke-linecap="round" stroke-linejoin="round"/>
</svg>
