<svg width="32" height="32" viewBox="0 0 32 32" fill="none" xmlns="http://www.w3.org/2000/svg">
<path fill-rule="evenodd" clip-rule="evenodd" d="M25.4827 18.9474C18.6069 18.9474 13.0345 13.3766 13.0345 6.51008C13.0345 2.91498 10.1344 0 6.51732 0C2.93278 0 0 2.91498 0 6.51008C0 10.1053 2.90015 13.0203 6.51732 13.0203H6.54984C13.393 13.0203 18.9328 18.5911 18.9653 25.4575V25.4899C18.9653 29.085 21.8655 32 25.4827 32C29.0999 32 32 29.085 32 25.4899C31.9674 21.8624 29.0672 18.9474 25.4827 18.9474Z" fill="#31C1BF"/>
<path fill-rule="evenodd" clip-rule="evenodd" d="M6.54955 18.9473C2.96501 18.9473 0.0322266 21.8622 0.0322266 25.4573C0.0322266 29.0526 2.93238 31.9675 6.54955 31.9675C10.1666 31.9675 13.0669 29.0526 13.0669 25.4573C13.0342 21.8622 10.1341 18.9473 6.54955 18.9473Z" fill="#31C1BF"/>
<path fill-rule="evenodd" clip-rule="evenodd" d="M25.4831 0C29.0826 0 32.0005 2.91462 32.0005 6.51008C32.0005 10.1055 29.0826 13.0203 25.4831 13.0203C21.8837 13.0203 18.9658 10.1055 18.9658 6.51008C18.9658 2.91462 21.8837 0 25.4831 0Z" fill="#31C1BF"/>
</svg>
