<svg width="32" height="32" viewBox="0 0 32 32" fill="none" xmlns="http://www.w3.org/2000/svg">
<rect width="32" height="32" rx="16" fill="#060606"/>
<path fill-rule="evenodd" clip-rule="evenodd" d="M20.7413 17.4737C17.3034 17.4737 14.5173 14.6883 14.5173 11.255C14.5173 9.45749 13.0672 8 11.2587 8C9.46639 8 8 9.45749 8 11.255C8 13.0526 9.45007 14.5101 11.2587 14.5101H11.2749C14.6965 14.5101 17.4664 17.2956 17.4827 20.7287V20.745C17.4827 22.5425 18.9327 24 20.7413 24C22.5499 24 24 22.5425 24 20.745C23.9837 18.9312 22.5336 17.4737 20.7413 17.4737Z" fill="#45D5CF"/>
<path fill-rule="evenodd" clip-rule="evenodd" d="M11.275 17.4736C9.48269 17.4736 8.0163 18.9311 8.0163 20.7287C8.0163 22.5263 9.46637 23.9838 11.275 23.9838C13.0835 23.9838 14.5336 22.5263 14.5336 20.7287C14.5173 18.9311 13.0672 17.4736 11.275 17.4736Z" fill="#45D5CF"/>
<path fill-rule="evenodd" clip-rule="evenodd" d="M20.7413 8C22.541 8 24 9.45731 24 11.255C24 13.0528 22.541 14.5101 20.7413 14.5101C18.9416 14.5101 17.4827 13.0528 17.4827 11.255C17.4827 9.45731 18.9416 8 20.7413 8Z" fill="#45D5CF"/>
</svg>
