<svg width="40" height="40" viewBox="0 0 40 40" fill="none" xmlns="http://www.w3.org/2000/svg">
<path d="M40 19.9997C40 25.3041 37.8928 30.3912 34.142 34.142C30.3912 37.8928 25.3041 40 19.9997 40C14.6955 39.9998 9.60859 37.8927 5.85797 34.142C2.10734 30.3914 0.000182466 25.3045 0 20.0003C-3.1386e-09 14.696 2.10708 9.60898 5.85772 5.85821C9.60837 2.10744 14.6954 0.000182473 19.9997 0C25.304 -3.13861e-09 30.391 2.10708 34.1418 5.85772C37.8926 9.60837 39.9998 14.6954 40 19.9997Z" fill="#111C23"/>
<path d="M22.7353 32.6727C22.5826 32.6728 22.4348 32.6192 22.3177 32.5214C22.2444 32.4602 22.1855 32.3837 22.1451 32.2973C22.1047 32.2108 22.0837 32.1166 22.0837 32.0212V26.6421C22.0838 26.4895 22.1375 26.3418 22.2353 26.2246C22.3331 26.1074 22.4689 26.0283 22.619 26.0009C24.0969 25.7302 25.4593 25.0213 26.5291 23.9664C26.7403 23.7557 26.9367 23.5307 27.1167 23.2928C25.2466 21.4296 23.0944 22.2326 20.6024 23.1614L19.8538 23.4366C17.3081 24.3861 14.4184 25.4622 11.9559 22.999C11.163 22.1886 10.6652 21.1354 10.5425 20.0083C10.4197 18.8812 10.679 17.7455 11.2789 16.7834C9.93862 14.6979 10.3975 11.8853 12.5504 9.73174C13.8081 8.49012 15.4102 7.65561 17.1485 7.33671C17.2424 7.3196 17.3389 7.32336 17.4312 7.34774C17.5234 7.37211 17.6092 7.4165 17.6824 7.47776C17.7557 7.53888 17.8146 7.61538 17.855 7.70182C17.8955 7.78826 17.9164 7.88253 17.9163 7.97796V13.3632C17.9163 13.5157 17.8627 13.6634 17.7651 13.7805C17.6674 13.8977 17.5318 13.9769 17.3817 14.0044C15.9039 14.2752 14.5415 14.984 13.4717 16.0389C13.2606 16.2497 13.0643 16.4748 12.8841 16.7125C14.7541 18.575 16.9063 17.7727 19.3983 16.8432L20.1469 16.568C22.6926 15.6178 25.5824 14.5418 28.0448 17.0056C28.5482 17.5048 28.935 18.109 29.1776 18.7751C29.4203 19.4411 29.5127 20.1526 29.4484 20.8586C29.3731 21.6861 29.1247 22.4885 28.7191 23.2137C30.0621 25.2964 29.6053 28.1125 27.4476 30.2674C26.1905 31.5086 24.5891 32.3431 22.8516 32.6624C22.813 32.6694 22.7738 32.6729 22.7346 32.6727H22.7353ZM23.3862 27.1685V31.1962C24.571 30.8506 25.6508 30.2146 26.5277 29.3461C28.0414 27.8324 28.5196 25.9314 27.8811 24.4212C27.7435 24.5813 27.5997 24.7374 27.4497 24.8897C26.3258 26.0011 24.9226 26.7882 23.3882 27.1678L23.3862 27.1685ZM12.2077 17.8636C11.8713 18.5498 11.755 19.3231 11.8747 20.0779C11.9944 20.8327 12.3443 21.5321 12.8765 22.0805C14.748 23.9519 16.9022 23.1483 19.397 22.2181L20.1455 21.9429C22.6066 21.0258 25.3849 19.9903 27.7916 22.1424C27.9848 21.7013 28.1049 21.2316 28.1473 20.7519C28.1953 20.2342 28.1282 19.7123 27.9509 19.2235C27.7735 18.7348 27.4903 18.2913 27.1215 17.9248C25.25 16.0534 23.0958 16.857 20.601 17.7872L19.8524 18.0624C17.3921 18.9796 14.6138 20.0157 12.2071 17.8643L12.2077 17.8636ZM16.6105 8.80772C15.4257 9.15354 14.3459 9.78944 13.4689 10.6578C11.9552 12.1715 11.4771 14.0718 12.1149 15.5814C12.2525 15.4227 12.3967 15.2667 12.5476 15.1135C13.6716 14.0014 15.0754 13.214 16.6105 12.8348V8.80772Z" fill="#00FFB9"/>
</svg>
