<svg width="32" height="32" viewBox="0 0 32 32" fill="none" xmlns="http://www.w3.org/2000/svg">
<rect width="32" height="32" rx="16" fill="#31C1BF"/>
<path fill-rule="evenodd" clip-rule="evenodd" d="M20.7413 17.4737C17.3034 17.4737 14.5173 14.6883 14.5173 11.2551C14.5173 9.45752 13.0672 8.00003 11.2587 8.00003C9.46639 8.00003 8 9.45752 8 11.2551C8 13.0527 9.45007 14.5102 11.2587 14.5102H11.2749C14.6965 14.5102 17.4664 17.2956 17.4827 20.7288V20.745C17.4827 22.5425 18.9327 24 20.7413 24C22.5499 24 24 22.5425 24 20.745C23.9837 18.9312 22.5336 17.4737 20.7413 17.4737Z" fill="white"/>
<path fill-rule="evenodd" clip-rule="evenodd" d="M11.275 17.4737C9.48275 17.4737 8.01636 18.9312 8.01636 20.7288C8.01636 22.5264 9.46643 23.9839 11.275 23.9839C13.0835 23.9839 14.5337 22.5264 14.5337 20.7288C14.5174 18.9312 13.0673 17.4737 11.275 17.4737Z" fill="white"/>
<path fill-rule="evenodd" clip-rule="evenodd" d="M20.7413 8C22.541 8 24 9.45731 24 11.255C24 13.0528 22.541 14.5101 20.7413 14.5101C18.9416 14.5101 17.4827 13.0528 17.4827 11.255C17.4827 9.45731 18.9416 8 20.7413 8Z" fill="white"/>
<circle cx="24" cy="24" r="8" fill="#101010"/>
<path d="M23.7379 22.483C23.8356 22.3824 23.9933 22.3766 24.1031 22.4638C24.2236 22.5595 24.2453 22.7341 24.1532 22.8574C23.1804 24.1596 22.516 25.2538 22.16 26.14C22.032 26.452 21.848 26.608 21.608 26.608C21.456 26.608 21.32 26.528 21.2 26.368C21.088 26.208 21.012 26.064 20.972 25.936C20.94 25.8 20.884 25.52 20.804 25.096C20.724 24.672 20.636 24.232 20.54 23.776C20.444 23.312 20.364 22.968 20.3 22.744C20.244 22.512 20.204 22.36 20.18 22.288C20.164 22.216 20.132 22.156 20.084 22.108C20.0451 22.0626 20.0769 22.0071 20.1364 22.0126L20.5832 22.0538C20.7041 22.065 20.8093 22.1424 20.8527 22.2558C21.0508 22.7722 21.2105 23.327 21.332 23.92C21.364 24.056 21.42 24.332 21.5 24.748C21.58 25.156 21.644 25.476 21.692 25.708C22.132 24.86 22.516 24.172 22.844 23.644C23.1277 23.1914 23.4257 22.8044 23.7379 22.483Z" fill="white"/>
<path d="M27.7805 25.2737C27.8562 25.2257 27.9542 25.2293 28.0248 25.2845C28.113 25.3535 28.1315 25.4804 28.0591 25.5657C27.8257 25.8409 27.5269 26.0764 27.1626 26.272C26.7306 26.496 26.3106 26.608 25.9026 26.608C25.4946 26.608 25.1666 26.488 24.9186 26.248C24.6706 26.008 24.5466 25.692 24.5466 25.3C24.5466 24.564 24.9346 23.84 25.7106 23.128C26.4946 22.416 27.2866 22.06 28.0866 22.06C28.6146 22.06 28.8786 22.268 28.8786 22.684C28.8786 23.116 28.5986 23.552 28.0386 23.992C27.4866 24.432 26.7066 24.832 25.6986 25.192C25.7706 25.376 25.8826 25.52 26.0346 25.624C26.1866 25.728 26.3426 25.78 26.5026 25.78C26.8218 25.78 27.2477 25.6112 27.7805 25.2737ZM25.6386 24.832C26.2866 24.608 26.8426 24.328 27.3066 23.992C27.7706 23.656 28.0026 23.348 28.0026 23.068C28.0026 22.964 27.9626 22.872 27.8826 22.792C27.8026 22.712 27.7106 22.672 27.6066 22.672C27.2306 22.672 26.8226 22.908 26.3826 23.38C25.9506 23.844 25.7026 24.328 25.6386 24.832Z" fill="white"/>
</svg>
