<svg width="140" height="140" viewBox="0 0 140 140" fill="none" xmlns="http://www.w3.org/2000/svg">
<circle cx="70" cy="70" r="70" fill="#EBFFFE"/>
<path d="M60 67.5V55C60 52.3478 61.0536 49.8043 62.9289 47.9289C64.8043 46.0536 67.3478 45 70 45C72.6522 45 75.1957 46.0536 77.0711 47.9289C78.9464 49.8043 80 52.3478 80 55M57.5 67.5H82.5C85.2614 67.5 87.5 69.7386 87.5 72.5V87.5C87.5 90.2614 85.2614 92.5 82.5 92.5H57.5C54.7386 92.5 52.5 90.2614 52.5 87.5V72.5C52.5 69.7386 54.7386 67.5 57.5 67.5ZM72.5 80C72.5 81.3807 71.3807 82.5 70 82.5C68.6193 82.5 67.5 81.3807 67.5 80C67.5 78.6193 68.6193 77.5 70 77.5C71.3807 77.5 72.5 78.6193 72.5 80Z" stroke="#83DAD9" stroke-width="6" stroke-linecap="round" stroke-linejoin="round"/>
</svg>
