<svg width="24" height="24" viewBox="0 0 24 24" fill="none" xmlns="http://www.w3.org/2000/svg">
<g clip-path="url(#clip0_2375_54)">
<path d="M22.745 16.6149L21.2958 21.327L18.4507 20.5788L22.745 16.6149Z" fill="#E4761B" stroke="#E4761B" stroke-width="0.0571157"/>
<path d="M18.4507 20.5788L21.1948 16.9634L22.745 16.6149L18.4507 20.5788Z" fill="#E4761B" stroke="#E4761B" stroke-width="0.0571157"/>
<path d="M20.6123 13.0623L22.7446 16.6149L21.1944 16.9633L20.6123 13.0623ZM20.6123 13.0623L21.9844 12.1485L22.7446 16.6149L20.6123 13.0623Z" fill="#F6851B" stroke="#F6851B" stroke-width="0.0571157"/>
<path d="M18.8662 10.3779L22.8101 8.82437L22.6141 9.67539L18.8662 10.3779ZM22.4894 10.6978L18.8662 10.3779L22.6141 9.67539L22.4894 10.6978Z" fill="#763D16" stroke="#763D16" stroke-width="0.0571157"/>
<path d="M22.4894 10.6978L21.9845 12.1485L18.8662 10.3779L22.4894 10.6978ZM23.2794 9.1842L22.6141 9.67539L22.8101 8.82437L23.2794 9.1842ZM22.4894 10.6978L22.6141 9.67539L23.1428 10.0981L22.4894 10.6978Z" fill="#763D16" stroke="#763D16" stroke-width="0.0571157"/>
<path d="M15.3916 19.4308L16.3776 19.7335L18.4505 20.5788L15.3916 19.4308Z" fill="#E2761B" stroke="#E2761B" stroke-width="0.0571157"/>
<path d="M21.9845 12.1485L22.4894 10.6978L22.923 11.0176L21.9845 12.1485ZM21.9845 12.1485L17.8921 10.852L18.8662 10.3779L21.9845 12.1485Z" fill="#763D16" stroke="#763D16" stroke-width="0.0571157"/>
<path d="M19.8403 5.9286L18.8662 10.3779L17.8921 10.852L19.8403 5.9286Z" fill="#763D16" stroke="#763D16" stroke-width="0.0571157"/>
<path d="M22.8101 8.82437L18.8662 10.3779L19.8403 5.9286L22.8101 8.82437Z" fill="#763D16" stroke="#763D16" stroke-width="0.0571157"/>
<path d="M19.8403 5.92862L23.9565 5.47169L22.8102 8.82438L19.8403 5.92862Z" fill="#763D16" stroke="#763D16" stroke-width="0.0571157"/>
<path d="M21.9845 12.1485L20.6124 13.0624L17.8921 10.852L21.9845 12.1485Z" fill="#F6851B" stroke="#F6851B" stroke-width="0.0571157"/>
<path d="M23.7783 2.2675L23.9565 5.47169L19.8403 5.92862L23.7783 2.2675Z" fill="#763D16" stroke="#763D16" stroke-width="0.0571157"/>
<path d="M23.7782 2.2675L15.5517 8.01905L15.4448 4.11805L23.7782 2.2675Z" fill="#E2761B" stroke="#E2761B" stroke-width="0.0571157"/>
<path d="M9.32715 3.64969L15.445 4.11804L15.5519 8.01904L9.32715 3.64969Z" fill="#F6851B" stroke="#F6851B" stroke-width="0.0571157"/>
<path d="M17.892 10.852L15.5518 8.01904L19.8402 5.9286L17.892 10.852Z" fill="#763D16" stroke="#763D16" stroke-width="0.0571157"/>
<path d="M17.8923 10.852L20.6127 13.0624L16.7935 13.4679L17.8923 10.852Z" fill="#E4761B" stroke="#E4761B" stroke-width="0.0571157"/>
<path d="M16.7931 13.4679L15.5518 8.01904L17.892 10.852L16.7931 13.4679Z" fill="#E4761B" stroke="#E4761B" stroke-width="0.0571157"/>
<path d="M19.8402 5.92862L15.5518 8.01905L23.7782 2.2675L19.8402 5.92862Z" fill="#763D16" stroke="#763D16" stroke-width="0.0571157"/>
<path d="M9.38057 20.4874L11.3228 22.435L8.67969 20.1218L9.38057 20.4874Z" fill="#C0AD9E" stroke="#C0AD9E" stroke-width="0.0571157"/>
<path d="M18.4507 20.5788L19.3713 17.2147L21.1948 16.9633L18.4507 20.5788Z" fill="#CD6116" stroke="#CD6116" stroke-width="0.0571157"/>
<path d="M1.50488 11.1147L4.86672 7.71632L1.93848 10.7092L1.50488 11.1147Z" fill="#E2761B" stroke="#E2761B" stroke-width="0.0571157"/>
<path d="M21.1946 16.9633L19.3711 17.2147L20.6125 13.0623L21.1946 16.9633ZM15.5519 8.01904L12.2792 7.91623L9.32715 3.64969L15.5519 8.01904Z" fill="#F6851B" stroke="#F6851B" stroke-width="0.0571157"/>
<path d="M20.6124 13.0623L19.371 17.2147L19.27 15.187L20.6124 13.0623Z" fill="#E4751F" stroke="#E4751F" stroke-width="0.0571157"/>
<path d="M16.7935 13.4679L20.6127 13.0623L19.2703 15.187L16.7935 13.4679Z" fill="#CD6116" stroke="#CD6116" stroke-width="0.0571157"/>
<path d="M12.2793 7.91623L15.552 8.01904L16.7934 13.4679L12.2793 7.91623Z" fill="#F6851B" stroke="#F6851B" stroke-width="0.0571157"/>
<path d="M12.2791 7.91623L3.44689 0.0571136L9.32714 3.64969L12.2791 7.91623ZM9.3212 21.6811L1.64718 23.9657L0.114746 18.3398L9.3212 21.6811Z" fill="#E4761B" stroke="#E4761B" stroke-width="0.0571157"/>
<path d="M2.64502 12.5198L5.54357 10.3322L7.97288 10.8748L2.64502 12.5198Z" fill="#763D16" stroke="#763D16" stroke-width="0.0571157"/>
<path d="M7.97277 10.8748L5.54346 10.3322L6.84424 5.16896L7.97277 10.8748Z" fill="#763D16" stroke="#763D16" stroke-width="0.0571157"/>
<path d="M1.93848 10.7092L5.54384 10.3322L2.64529 12.5198L1.93848 10.7092Z" fill="#763D16" stroke="#763D16" stroke-width="0.0571157"/>
<path d="M19.2703 15.1871L17.7735 14.4617L16.7935 13.4679L19.2703 15.1871Z" fill="#CD6116" stroke="#CD6116" stroke-width="0.0571157"/>
<path d="M1.93802 10.7092L1.68262 9.41266L5.54339 10.3322L1.93802 10.7092Z" fill="#763D16" stroke="#763D16" stroke-width="0.0571157"/>
<path d="M17.4644 16.0952L17.7732 14.4617L19.27 15.1871L17.4644 16.0952Z" fill="#233447" stroke="#233447" stroke-width="0.0571157"/>
<path d="M19.371 17.2147L17.4644 16.0952L19.27 15.1871L19.371 17.2147Z" fill="#F6851B" stroke="#F6851B" stroke-width="0.0571157"/>
<path d="M5.54374 10.3322L1.68297 9.41265L1.36816 8.32174L5.54374 10.3322ZM6.84452 5.16896L5.54374 10.3322L1.36816 8.32174L6.84452 5.16896ZM6.84452 5.16896L12.2793 7.91622L7.97305 10.8748L6.84452 5.16896Z" fill="#763D16" stroke="#763D16" stroke-width="0.0571157"/>
<path d="M7.97314 10.8748L12.2794 7.91623L14.1979 13.5535L7.97314 10.8748ZM14.1979 13.5535L8.24637 13.4336L7.97314 10.8748L14.1979 13.5535Z" fill="#E4761B" stroke="#E4761B" stroke-width="0.0571157"/>
<path d="M2.64502 12.5198L7.97288 10.8748L8.24611 13.4336L2.64502 12.5198ZM16.7933 13.4679L14.1976 13.5535L12.2791 7.91623L16.7933 13.4679Z" fill="#F6851B" stroke="#F6851B" stroke-width="0.0571157"/>
<path d="M17.7735 14.4617L17.4646 16.0952L16.7935 13.4679L17.7735 14.4617Z" fill="#CD6116" stroke="#CD6116" stroke-width="0.0571157"/>
<path d="M3.44678 0.0571136L12.279 7.91623L6.84426 5.16897L3.44678 0.0571136Z" fill="#763D16" stroke="#763D16" stroke-width="0.0571157"/>
<path d="M0.114746 18.3398L7.56307 18.0428L9.3212 21.6811L0.114746 18.3398Z" fill="#E4761B" stroke="#E4761B" stroke-width="0.0571157"/>
<path d="M9.32112 21.6811L7.56299 18.0428L11.2218 17.8715L9.32112 21.6811Z" fill="#CD6116" stroke="#CD6116" stroke-width="0.0571157"/>
<path d="M17.4645 16.0952L19.3711 17.2147L20.4224 19.5964L17.4645 16.0952ZM8.24612 13.4336L0.114746 18.3398L2.64504 12.5198L8.24612 13.4336ZM7.56306 18.0428L0.114746 18.3398L8.24612 13.4336L7.56306 18.0428ZM16.7933 13.4679L17.2803 15.1699L14.9282 15.3013L16.7933 13.4679ZM14.9282 15.3013L14.1977 13.5536L16.7933 13.4679L14.9282 15.3013Z" fill="#F6851B" stroke="#F6851B" stroke-width="0.0571157"/>
<path d="M11.323 22.435L9.32129 21.6811L16.2826 22.8063L11.323 22.435Z" fill="#C0AD9E" stroke="#C0AD9E" stroke-width="0.0571157"/>
<path d="M2.6453 12.5197L1.50488 11.1147L1.93848 10.7092L2.6453 12.5197Z" fill="#763D16" stroke="#763D16" stroke-width="0.0571157"/>
<path d="M17.0725 21.9724L16.2826 22.8063L9.32129 21.6811L17.0725 21.9724Z" fill="#D7C1B3" stroke="#D7C1B3" stroke-width="0.0571157"/>
<path d="M17.4467 19.9277L9.32129 21.6811L11.222 17.8715L17.4467 19.9277Z" fill="#E4761B" stroke="#E4761B" stroke-width="0.0571157"/>
<path d="M9.32129 21.6811L17.4467 19.9276L17.0725 21.9724L9.32129 21.6811Z" fill="#D7C1B3" stroke="#D7C1B3" stroke-width="0.0571157"/>
<path d="M1.36787 8.32176L1.10059 3.92957L6.84423 5.16898L1.36787 8.32176ZM1.93808 10.7092L1.1481 9.93813L1.68267 9.41267L1.93808 10.7092Z" fill="#763D16" stroke="#763D16" stroke-width="0.0571157"/>
<path d="M12.8672 14.6844L14.1977 13.5535L14.0076 16.3179L12.8672 14.6844Z" fill="#CD6116" stroke="#CD6116" stroke-width="0.0571157"/>
<path d="M14.1975 13.5535L12.867 14.6844L10.9307 15.6497L14.1975 13.5535Z" fill="#CD6116" stroke="#CD6116" stroke-width="0.0571157"/>
<path d="M20.4223 19.5964L20.06 19.3394L17.4644 16.0952L20.4223 19.5964Z" fill="#F6851B" stroke="#F6851B" stroke-width="0.0571157"/>
<path d="M10.9308 15.6497L8.24609 13.4336L14.1976 13.5535L10.9308 15.6497Z" fill="#CD6116" stroke="#CD6116" stroke-width="0.0571157"/>
<path d="M14.0078 16.3179L14.1979 13.5535L14.9285 15.3013L14.0078 16.3179Z" fill="#E4751F" stroke="#E4751F" stroke-width="0.0571157"/>
<path d="M0.886719 8.75584L1.36783 8.32176L1.68263 9.41267L0.886719 8.75584Z" fill="#763D16" stroke="#763D16" stroke-width="0.0571157"/>
<path d="M14.0074 16.3179L10.9307 15.6497L12.867 14.6844L14.0074 16.3179Z" fill="#233447" stroke="#233447" stroke-width="0.0571157"/>
<path d="M6.84423 5.16896L1.10059 3.92956L3.44675 0.0571136L6.84423 5.16896Z" fill="#763D16" stroke="#763D16" stroke-width="0.0571157"/>
<path d="M16.2824 22.8063L16.609 23.663L11.3228 22.435L16.2824 22.8063Z" fill="#C0AD9E" stroke="#C0AD9E" stroke-width="0.0571157"/>
<path d="M11.2217 17.8715L10.9307 15.6497L14.0074 16.3179L11.2217 17.8715Z" fill="#F6851B" stroke="#F6851B" stroke-width="0.0571157"/>
<path d="M8.24609 13.4336L10.9308 15.6497L11.2219 17.8715L8.24609 13.4336Z" fill="#E4751F" stroke="#E4751F" stroke-width="0.0571157"/>
<path d="M14.9282 15.3013L17.2803 15.1699L20.06 19.3394L14.9282 15.3013ZM8.24605 13.4336L11.2218 17.8715L7.56299 18.0428L8.24605 13.4336Z" fill="#F6851B" stroke="#F6851B" stroke-width="0.0571157"/>
<path d="M14.9285 15.3013L17.8508 19.5792L14.0078 16.3179L14.9285 15.3013Z" fill="#E4751F" stroke="#E4751F" stroke-width="0.0571157"/>
<path d="M14.0078 16.3179L17.8508 19.5793L17.4469 19.9277L14.0078 16.3179Z" fill="#F6851B" stroke="#F6851B" stroke-width="0.0571157"/>
<path d="M17.4464 19.9277L11.2217 17.8715L14.0074 16.3179L17.4464 19.9277ZM20.0599 19.3394L17.8503 19.5792L14.928 15.3013L20.0599 19.3394Z" fill="#F6851B" stroke="#F6851B" stroke-width="0.0571157"/>
<path d="M20.6424 21.3498L19.6921 23.1832L16.6094 23.663L20.6424 21.3498ZM16.6094 23.663L16.2827 22.8063L17.0727 21.9724L16.6094 23.663Z" fill="#C0AD9E" stroke="#C0AD9E" stroke-width="0.0571157"/>
<path d="M17.0727 21.9724L17.6548 21.7496L16.6094 23.663L17.0727 21.9724ZM16.6094 23.663L17.6548 21.7496L20.6424 21.3498L16.6094 23.663Z" fill="#C0AD9E" stroke="#C0AD9E" stroke-width="0.0571157"/>
<path d="M20.0602 19.3394L20.7908 19.7677L18.5693 20.0248L20.0602 19.3394Z" fill="#161616" stroke="#161616" stroke-width="0.0571157"/>
<path d="M18.5693 20.0248L17.8506 19.5793L20.0601 19.3394L18.5693 20.0248ZM18.3139 20.3617L21.0164 20.0476L20.6422 21.3498L18.3139 20.3617Z" fill="#161616" stroke="#161616" stroke-width="0.0571157"/>
<path d="M20.642 21.3498L17.6544 21.7497L18.3137 20.3617L20.642 21.3498ZM17.6544 21.7497L17.0723 21.9724L17.4465 19.9277L17.6544 21.7497ZM17.4465 19.9277L17.8504 19.5793L18.5691 20.0248L17.4465 19.9277ZM20.7905 19.7677L21.0162 20.0476L18.3137 20.3617L20.7905 19.7677Z" fill="#161616" stroke="#161616" stroke-width="0.0571157"/>
<path d="M18.314 20.3617L18.5694 20.0248L20.7908 19.7677L18.314 20.3617ZM17.4468 19.9277L18.314 20.3617L17.6547 21.7496L17.4468 19.9277Z" fill="#161616" stroke="#161616" stroke-width="0.0571157"/>
<path d="M18.5694 20.0247L18.314 20.3617L17.4468 19.9276L18.5694 20.0247Z" fill="#161616" stroke="#161616" stroke-width="0.0571157"/>
</g>
<defs>
<clipPath id="clip0_2375_54">
<rect width="24" height="24" fill="white"/>
</clipPath>
</defs>
</svg>
